<svg width="18" height="18" viewBox="0 0 18 18" fill="none" xmlns="http://www.w3.org/2000/svg">
<path d="M13.71 1.29675C13.71 0.741301 13.26 0.294434 12.7006 0.294434C12.1413 0.294434 11.6913 0.741301 11.6913 1.29675L11.6913 16.6657C11.6913 17.2211 12.1413 17.668 12.7006 17.668C13.26 17.668 13.71 17.2211 13.71 16.6657L13.71 1.29675ZM6.30809 1.29675C6.30809 0.741301 5.85809 0.294433 5.29875 0.294433C4.7394 0.294433 4.2894 0.741301 4.2894 1.29675L4.2894 16.6657C4.2894 17.2211 4.7394 17.668 5.29875 17.668C5.85809 17.668 6.30809 17.2211 6.30809 16.6657L6.30809 1.29675Z" fill="white"/>
</svg>